<svg width="49" height="24" viewBox="0 0 49 24" fill="none" xmlns="http://www.w3.org/2000/svg">
<g clip-path="url(#clip0_3204_28455)">
<mask id="mask0_3204_28455" style="mask-type:luminance" maskUnits="userSpaceOnUse" x="0" y="0" width="49" height="24">
<path d="M48.9616 0H0V23.9876H48.9616V0Z" fill="white"/>
</mask>
<g mask="url(#mask0_3204_28455)">
<path d="M28.1531 5.78744L27.2599 9.01142C27.2361 9.09905 27.1897 9.16706 27.1215 9.21414C27.0533 9.26123 26.9692 9.28477 26.8699 9.28477H25.9356C25.8396 9.28477 25.7561 9.25469 25.6839 9.19322C25.6118 9.1324 25.578 9.05785 25.5813 8.97022L25.6171 7.09992C25.6204 7.00183 25.625 6.91224 25.6296 6.83115C25.6343 6.75006 25.6389 6.66243 25.6422 6.5676H25.5495C25.5356 6.65196 25.5204 6.73829 25.5032 6.82591C25.486 6.91354 25.4674 6.99987 25.4469 7.08423L24.939 9.01076C24.9152 9.09839 24.8682 9.1664 24.798 9.21349C24.7278 9.26057 24.645 9.28412 24.549 9.28412H23.5889C23.4928 9.28412 23.4094 9.25403 23.3372 9.19256C23.2651 9.13175 23.2313 9.0572 23.2346 8.96957L23.2452 5.78613H24.3384L24.2 7.95071C24.1967 8.03507 24.1908 8.12532 24.1822 8.2221C24.1736 8.31823 24.1656 8.42221 24.159 8.53403H24.2464C24.2669 8.42613 24.2901 8.31692 24.3159 8.20706C24.3417 8.0972 24.3662 7.99649 24.3901 7.90559L24.8827 6.09087C24.9377 5.88815 25.0695 5.78679 25.278 5.78679H26.0534C26.1528 5.78679 26.2349 5.81948 26.2998 5.88553C26.3646 5.95158 26.3971 6.03333 26.3971 6.13142V7.9566C26.3971 8.04815 26.3964 8.14428 26.3944 8.24564C26.3925 8.347 26.3898 8.44314 26.3865 8.53469H26.4792C26.4898 8.43987 26.505 8.33523 26.5256 8.22014C26.5461 8.10504 26.5666 8.00564 26.5871 7.92128L27.0593 5.78679H28.1525L28.1531 5.78744Z" fill="white"/>
<path d="M30.2264 5.71582C30.6164 5.71582 30.9316 5.7701 31.1706 5.878C31.4103 5.9859 31.5732 6.17489 31.6606 6.44301C31.748 6.71179 31.7593 7.08912 31.6937 7.57632C31.6461 7.93468 31.5765 8.23027 31.4858 8.46373C31.3951 8.69719 31.2779 8.87768 31.1342 9.00585C30.9905 9.13403 30.815 9.22493 30.6078 9.27724C30.4005 9.32956 30.1588 9.35572 29.8814 9.35572C29.4742 9.35572 29.153 9.30079 28.9186 9.19092C28.6842 9.08106 28.5293 8.89076 28.4544 8.62068C28.3789 8.3506 28.3743 7.97523 28.4392 7.49523C28.4908 7.14013 28.5604 6.84716 28.6498 6.61566C28.7385 6.38416 28.8531 6.20236 28.9934 6.07092C29.1338 5.93882 29.3046 5.84726 29.5066 5.79429C29.7086 5.74198 29.9483 5.71582 30.2251 5.71582H30.2264ZM30.2158 6.53195C30.0926 6.53195 29.994 6.55877 29.9205 6.61305C29.847 6.66733 29.788 6.76869 29.7437 6.91713C29.6993 7.06558 29.6529 7.28531 29.6053 7.57632C29.5642 7.84313 29.5457 8.04585 29.549 8.18449C29.5523 8.32313 29.5834 8.41664 29.6417 8.46569C29.7 8.51474 29.7887 8.53893 29.9085 8.53893C30.0383 8.53893 30.1396 8.51212 30.2111 8.45784C30.2827 8.40357 30.3423 8.30155 30.3879 8.15114C30.4343 8.00073 30.4793 7.78166 30.5237 7.49457C30.5647 7.22776 30.5833 7.02569 30.58 6.88901C30.5767 6.75234 30.5455 6.65817 30.4873 6.60782C30.429 6.55681 30.3383 6.53195 30.2151 6.53195H30.2158Z" fill="white"/>
<path d="M36.4785 5.78728C36.605 5.78728 36.701 5.82259 36.7659 5.89387C36.8308 5.96515 36.8566 6.06259 36.8427 6.18815L36.5242 9.28526H35.523L35.8005 6.60864H35.7289L35.1337 8.41354C35.0992 8.52537 35.0463 8.60515 34.9747 8.6542C34.9032 8.70324 34.8072 8.72744 34.6874 8.72744H34.1225C34.006 8.72744 33.9126 8.69605 33.8431 8.63392C33.7729 8.57114 33.7345 8.48417 33.7279 8.373L33.6306 6.60864H33.5484L33.0816 9.28526H32.0804L32.6499 6.1476C32.6737 6.0227 32.7154 5.93114 32.7757 5.8736C32.8353 5.81605 32.9287 5.78728 33.0551 5.78728H33.9994C34.1159 5.78728 34.208 5.81866 34.2768 5.88079C34.345 5.94357 34.3814 6.03185 34.3848 6.14695L34.4463 7.53594C34.453 7.6203 34.4549 7.70597 34.4516 7.79164C34.4483 7.87796 34.443 7.96624 34.4364 8.05779H34.4874C34.5079 7.9597 34.5284 7.87076 34.549 7.79164C34.5695 7.71251 34.592 7.63011 34.6159 7.54575L35.0469 6.10575C35.078 5.99065 35.1297 5.90891 35.2039 5.85986C35.2774 5.81082 35.372 5.78662 35.4886 5.78662H36.4792L36.4785 5.78728Z" fill="white"/>
<path d="M38.5266 5.76709C38.7352 5.76709 38.9464 5.76905 39.1603 5.77232C39.3741 5.77559 39.5801 5.78148 39.7787 5.78998C39.9774 5.79848 40.1548 5.81483 40.3124 5.83837L40.1893 6.60873H38.9576C38.8722 6.60873 38.8093 6.62312 38.7703 6.65189C38.7312 6.68067 38.706 6.73364 38.6961 6.81146L38.4908 8.2665C38.4809 8.33058 38.4908 8.37963 38.5219 8.41364C38.5524 8.44764 38.606 8.46464 38.6809 8.46464H39.9125L39.892 9.24546C39.7277 9.269 39.5463 9.28404 39.3477 9.29124C39.149 9.29778 38.9471 9.30236 38.7418 9.30366C38.5365 9.30562 38.3412 9.30628 38.1564 9.30628C37.8657 9.30628 37.6519 9.21669 37.5148 9.0375C37.3777 8.85832 37.3267 8.63009 37.3605 8.35347L37.6174 6.54399C37.6519 6.30725 37.7466 6.11892 37.9022 5.97897C38.0578 5.83902 38.2657 5.7684 38.5259 5.7684L38.5266 5.76709ZM37.6333 7.13058H39.9277L39.835 7.86039H37.5148L37.6327 7.13058H37.6333Z" fill="white"/>
<path d="M44.2344 5.78728L43.7881 8.92493C43.7709 9.04984 43.7305 9.14139 43.6676 9.19894C43.604 9.25648 43.5094 9.28526 43.3829 9.28526H43.0134C42.8969 9.28526 42.8141 9.25518 42.7644 9.19371C42.7148 9.13289 42.6658 9.04984 42.6181 8.9452L42.0122 7.7439C41.9711 7.66281 41.9367 7.57256 41.9096 7.47251C41.8824 7.37311 41.8566 7.27044 41.8328 7.1658H41.797C41.8003 7.27371 41.8003 7.38095 41.797 7.48755C41.7937 7.59414 41.7831 7.7027 41.7665 7.81452L41.546 9.2846H40.5243L40.9706 6.14695C40.9878 6.02204 41.0282 5.93049 41.0911 5.87294C41.1547 5.81539 41.2494 5.78662 41.3759 5.78662H41.7454C41.8619 5.78662 41.944 5.81801 41.9917 5.88014C42.0394 5.94292 42.0877 6.02466 42.1354 6.12602L42.7307 7.26651C42.7717 7.35087 42.8101 7.44112 42.8459 7.5379C42.8816 7.63403 42.9154 7.7452 42.9459 7.87011H42.9869C42.9763 7.75501 42.9723 7.65234 42.9743 7.56079C42.9763 7.46924 42.9836 7.37507 42.9975 7.27698L43.2134 5.78662H44.2351L44.2344 5.78728Z" fill="white"/>
<path d="M45.4601 5.71273C45.5958 5.71273 45.6905 5.7402 45.7448 5.79579C45.7991 5.85072 45.8176 5.94358 45.8011 6.07241L45.7554 6.37519C45.7382 6.4857 45.7077 6.60211 45.664 6.7257C45.6197 6.84865 45.5667 6.96636 45.5038 7.07818C45.4409 7.19001 45.3727 7.28745 45.2979 7.36919L44.8655 7.21748C44.9164 7.11023 44.9575 7.00233 44.9899 6.89312C45.0224 6.78456 45.0535 6.676 45.084 6.56876C44.9721 6.57203 44.8966 6.54848 44.8575 6.49748C44.8184 6.44712 44.8059 6.36995 44.8191 6.26532L44.8549 6.04756C44.8754 5.91807 44.9191 5.82979 44.9873 5.78271C45.0548 5.73562 45.1515 5.71143 45.2773 5.71143H45.4607L45.4601 5.71273Z" fill="white"/>
<path d="M47.6936 5.71582C47.8922 5.71582 48.1034 5.72955 48.3272 5.75637C48.5511 5.78318 48.7629 5.83092 48.9609 5.89827L48.8636 6.59801C48.761 6.59474 48.6404 6.59278 48.5021 6.59278C48.3637 6.59278 48.2186 6.59212 48.0683 6.59016C47.9174 6.5882 47.769 6.58754 47.622 6.58754C47.5638 6.58754 47.5141 6.59016 47.4731 6.59539C47.432 6.60062 47.3976 6.60782 47.3704 6.61828C47.3433 6.62874 47.3214 6.64313 47.3062 6.66144C47.291 6.6804 47.2797 6.70264 47.2731 6.7301C47.2698 6.75365 47.2724 6.77719 47.281 6.80073C47.2896 6.82427 47.3108 6.84782 47.3453 6.87136C47.3797 6.8949 47.4307 6.92367 47.4995 6.95768L48.0948 7.23626C48.2902 7.32716 48.4372 7.42395 48.5365 7.52531C48.6358 7.62667 48.7 7.74242 48.7292 7.87256C48.7583 8.00269 48.7623 8.15376 48.7418 8.3264C48.7113 8.59321 48.6444 8.80182 48.5418 8.95223C48.4391 9.10264 48.2862 9.20727 48.0822 9.26678C47.8783 9.32564 47.6055 9.35572 47.2638 9.35572C47.1168 9.35572 46.9175 9.34329 46.6659 9.31779C46.4143 9.29229 46.1534 9.24585 45.8832 9.1785L45.9858 8.41272C46.1845 8.41599 46.3686 8.42057 46.5374 8.42515C46.7069 8.43038 46.85 8.43365 46.9658 8.43496C47.0824 8.43692 47.1625 8.43757 47.2069 8.43757C47.3128 8.43757 47.3956 8.43234 47.4558 8.42253C47.5154 8.41207 47.5605 8.39637 47.5896 8.37414C47.6187 8.3519 47.6366 8.32444 47.6432 8.29043C47.6499 8.26035 47.6492 8.23485 47.6406 8.21457C47.632 8.1943 47.6141 8.17468 47.5869 8.15637C47.5598 8.13806 47.5221 8.11648 47.4737 8.09294L46.8268 7.77839C46.6281 7.6803 46.4791 7.57632 46.3805 7.46645C46.2812 7.35659 46.2176 7.23757 46.1904 7.1094C46.1633 6.98122 46.158 6.84585 46.1752 6.70395C46.1991 6.51102 46.2461 6.35081 46.3163 6.22263C46.3864 6.09446 46.4831 5.99375 46.6063 5.92116C46.7294 5.84857 46.8817 5.79626 47.0632 5.76421C47.2446 5.73217 47.4552 5.71582 47.6949 5.71582H47.6936Z" fill="white"/>
<path d="M24.5291 10.5587L24.0312 14.0566H22.9227L23.4207 10.5587H24.5291ZM24.8476 10.5083C25.2105 10.5083 25.4959 10.5449 25.7051 10.6175C25.9137 10.6901 26.0561 10.8163 26.1309 10.9955C26.2064 11.1747 26.2216 11.4232 26.1773 11.7403C26.1362 12.0412 26.0654 12.2746 25.964 12.4401C25.8627 12.6055 25.7177 12.7206 25.5277 12.7847C25.3376 12.8488 25.0873 12.8808 24.7755 12.8808C24.6006 12.8808 24.4291 12.8717 24.2596 12.8527C24.0901 12.8344 23.9325 12.8096 23.7875 12.7795C23.6418 12.7487 23.518 12.7167 23.4154 12.6833C23.3127 12.6493 23.2426 12.6193 23.2048 12.5918L23.2353 12.1052H24.6775C24.7662 12.1052 24.8364 12.0967 24.888 12.0797C24.9397 12.0627 24.9794 12.0222 25.0085 11.9581C25.0377 11.894 25.0609 11.794 25.0781 11.6593C25.092 11.5644 25.094 11.4905 25.086 11.4363C25.0774 11.382 25.0529 11.3434 25.0119 11.3199C24.9708 11.2963 24.9072 11.2845 24.8218 11.2845C24.4695 11.2845 24.1709 11.2872 23.9259 11.2924C23.6809 11.2976 23.516 11.3048 23.4306 11.3153L23.42 10.56C23.5743 10.543 23.718 10.5312 23.8511 10.5246C23.9842 10.5181 24.1292 10.5135 24.2848 10.5122C24.4404 10.5103 24.6278 10.5096 24.847 10.5096L24.8476 10.5083Z" fill="white"/>
<path d="M28.0399 10.5587L27.542 14.0566H26.454L26.952 10.5587H28.0399ZM28.3836 10.5083C28.712 10.5083 28.9861 10.5423 29.2047 10.6097C29.4238 10.677 29.5808 10.7915 29.6768 10.9517C29.7728 11.1126 29.8019 11.3329 29.7642 11.6135C29.747 11.7456 29.7119 11.8679 29.6589 11.981C29.6059 12.0941 29.5245 12.1883 29.4152 12.2622C29.306 12.3367 29.155 12.3838 28.9636 12.4041L28.9583 12.4394C29.0166 12.446 29.0789 12.4675 29.1457 12.5029C29.2126 12.5382 29.2722 12.5951 29.3252 12.6729C29.3781 12.7507 29.4113 12.8606 29.4252 13.0025L29.5589 14.0566H28.4094L28.3167 12.9972C28.3134 12.8991 28.2982 12.8383 28.2704 12.8148C28.2432 12.7912 28.1902 12.7795 28.1114 12.7795C27.8479 12.7762 27.634 12.7742 27.4698 12.7742C27.3056 12.7742 27.1679 12.7723 27.0566 12.769C26.9454 12.7657 26.8368 12.7605 26.7308 12.754L26.8129 12.0039H28.2194C28.322 12.0039 28.4015 11.9934 28.4577 11.9738C28.514 11.9535 28.5571 11.9136 28.5862 11.8548C28.6153 11.7959 28.6385 11.7122 28.6557 11.6037C28.6696 11.5226 28.6696 11.4585 28.6557 11.4108C28.6418 11.3637 28.6127 11.3303 28.5683 11.312C28.524 11.2937 28.4591 11.2839 28.373 11.2839C28.0068 11.2839 27.7016 11.2865 27.4566 11.2917C27.2116 11.297 27.0467 11.3042 26.9613 11.3146L26.9507 10.5593C27.1049 10.5423 27.2493 10.5305 27.3844 10.524C27.5195 10.5175 27.6658 10.5129 27.8234 10.5116C27.981 10.5096 28.1671 10.509 28.3829 10.509L28.3836 10.5083Z" fill="white"/>
<path d="M31.4176 10.5381C31.6262 10.5381 31.8374 10.54 32.0513 10.5433C32.2652 10.5466 32.4711 10.5525 32.6698 10.561C32.8684 10.5695 33.0459 10.5858 33.2035 10.6094L33.0803 11.3797H31.8487C31.7633 11.3797 31.7003 11.3941 31.6613 11.4229C31.6222 11.4517 31.5971 11.5046 31.5871 11.5824L31.3818 13.0375C31.3719 13.1016 31.3818 13.1506 31.413 13.1846C31.4434 13.2186 31.4971 13.2356 31.5719 13.2356H32.8035L32.783 14.0165C32.6188 14.04 32.4373 14.055 32.2387 14.0622C32.04 14.0688 31.8381 14.0733 31.6328 14.0747C31.4275 14.0766 31.2322 14.0773 31.0475 14.0773C30.7568 14.0773 30.5429 13.9877 30.4058 13.8085C30.2688 13.6293 30.2178 13.4011 30.2515 13.1245L30.5085 11.315C30.5429 11.0782 30.6376 10.8899 30.7932 10.75C30.9488 10.61 31.1567 10.5394 31.4169 10.5394L31.4176 10.5381ZM30.5244 11.9016H32.8187L32.726 12.6314H30.4058L30.5237 11.9016H30.5244Z" fill="white"/>
<path d="M37.7565 10.5586C37.883 10.5586 37.979 10.5939 38.0439 10.6652C38.1088 10.7365 38.1346 10.8339 38.1207 10.9595L37.8022 14.0566H36.801L37.0784 11.38H37.0069L36.4116 13.1849C36.3772 13.2967 36.3242 13.3765 36.2527 13.4255C36.1812 13.4746 36.0852 13.4988 35.9653 13.4988H35.4005C35.284 13.4988 35.1906 13.4674 35.1211 13.4052C35.0509 13.3425 35.0125 13.2555 35.0059 13.1443L34.9085 11.38H34.8264L34.3596 14.0566H33.3584L33.9279 10.9189C33.9517 10.794 33.9934 10.7025 34.0537 10.6449C34.1133 10.5874 34.2066 10.5586 34.3331 10.5586H35.2774C35.3939 10.5586 35.4859 10.59 35.5548 10.6521C35.623 10.7149 35.6594 10.8032 35.6627 10.9183L35.7243 12.3073C35.7309 12.3916 35.7329 12.4773 35.7296 12.563C35.7263 12.6493 35.721 12.7376 35.7144 12.8291H35.7654C35.7859 12.731 35.8064 12.6421 35.8269 12.563C35.8475 12.4838 35.87 12.4014 35.8938 12.3171L36.3249 10.8777C36.356 10.7626 36.4077 10.6809 36.4818 10.6318C36.5553 10.5828 36.65 10.5586 36.7666 10.5586H37.7572H37.7565Z" fill="white"/>
<path d="M40.1429 10.5586L39.645 14.0566H38.5365L39.0345 10.5586H40.1429Z" fill="white"/>
<path d="M41.7136 10.5381C41.9222 10.5381 42.1334 10.54 42.3473 10.5433C42.5611 10.5466 42.7671 10.5525 42.9657 10.561C43.1644 10.5695 43.3418 10.5858 43.4994 10.6094L43.3763 11.3797H42.1446C42.0592 11.3797 41.9963 11.3941 41.9572 11.4229C41.9182 11.4517 41.893 11.5046 41.8831 11.5824L41.6778 13.0375C41.6679 13.1016 41.6778 13.1506 41.7089 13.1846C41.7394 13.2186 41.793 13.2356 41.8679 13.2356H43.0995L43.0789 14.0165C42.9147 14.04 42.7333 14.055 42.5346 14.0622C42.336 14.0688 42.134 14.0733 41.9288 14.0747C41.7235 14.0766 41.5282 14.0773 41.3434 14.0773C41.0527 14.0773 40.8389 13.9877 40.7018 13.8085C40.5647 13.6293 40.5137 13.4011 40.5475 13.1245L40.8044 11.315C40.8389 11.0782 40.9335 10.8899 41.0892 10.75C41.2448 10.61 41.4527 10.5394 41.7129 10.5394L41.7136 10.5381ZM40.8203 11.9016H43.1147L43.022 12.6314H40.7018L40.8197 11.9016H40.8203Z" fill="white"/>
<path d="M45.2965 10.5587L44.7986 14.0566H43.7106L44.2086 10.5587H45.2965ZM45.6402 10.5083C45.9686 10.5083 46.2428 10.5423 46.4613 10.6097C46.6804 10.677 46.8374 10.7915 46.9334 10.9517C47.0294 11.1126 47.0585 11.3329 47.0208 11.6135C47.0036 11.7456 46.9685 11.8679 46.9155 11.981C46.8625 12.0941 46.7811 12.1883 46.6718 12.2622C46.5626 12.3367 46.4116 12.3838 46.2202 12.4041L46.2149 12.4394C46.2732 12.446 46.3355 12.4675 46.4023 12.5029C46.4692 12.5382 46.5288 12.5951 46.5818 12.6729C46.6348 12.7507 46.6679 12.8606 46.6818 13.0025L46.8155 14.0566H45.666L45.5733 12.9972C45.57 12.8991 45.5548 12.8383 45.527 12.8148C45.4998 12.7912 45.4468 12.7795 45.368 12.7795C45.1045 12.7762 44.8906 12.7742 44.7264 12.7742C44.5622 12.7742 44.4245 12.7723 44.3132 12.769C44.202 12.7657 44.0934 12.7605 43.9874 12.754L44.0695 12.0039H45.476C45.5786 12.0039 45.6581 11.9934 45.7144 11.9738C45.7706 11.9535 45.8137 11.9136 45.8428 11.8548C45.8719 11.7959 45.8951 11.7122 45.9123 11.6037C45.9262 11.5226 45.9262 11.4585 45.9123 11.4108C45.8984 11.3637 45.8693 11.3303 45.8249 11.312C45.7806 11.2937 45.7157 11.2839 45.6296 11.2839C45.2634 11.2839 44.9582 11.2865 44.7132 11.2917C44.4682 11.297 44.3033 11.3042 44.2179 11.3146L44.2073 10.5593C44.3616 10.5423 44.5059 10.5305 44.641 10.524C44.7761 10.5175 44.9224 10.5129 45.08 10.5116C45.2376 10.5096 45.4237 10.509 45.6395 10.509L45.6402 10.5083Z" fill="white"/>
<path d="M24.5238 15.3291L24.1596 17.752C24.153 17.8265 24.1623 17.8789 24.1881 17.9089C24.2139 17.939 24.2656 17.9547 24.3444 17.9547H25.5144L25.4939 18.7813C25.2575 18.8114 24.9893 18.8304 24.6881 18.8369C24.3868 18.8434 24.0895 18.8474 23.7948 18.8474C23.624 18.8474 23.4763 18.812 23.3531 18.7408C23.23 18.6695 23.1386 18.5727 23.0783 18.4491C23.0187 18.3255 23.0002 18.1862 23.0247 18.0312L23.4048 15.3291H24.5238Z" fill="white"/>
<path d="M27.2857 15.3086C27.4943 15.3086 27.7055 15.3106 27.9194 15.3138C28.1333 15.3171 28.3392 15.323 28.5379 15.3315C28.7365 15.34 28.914 15.3563 29.0716 15.3799L28.9484 16.1502H27.7168C27.6314 16.1502 27.5685 16.1646 27.5294 16.1934C27.4903 16.2222 27.4652 16.2751 27.4552 16.353L27.25 17.808C27.24 17.8721 27.25 17.9211 27.2811 17.9551C27.3115 17.9891 27.3652 18.0061 27.44 18.0061H28.6716L28.6511 18.787C28.4869 18.8105 28.3054 18.8255 28.1068 18.8327C27.9081 18.8393 27.7062 18.8439 27.5009 18.8452C27.2956 18.8471 27.1003 18.8478 26.9156 18.8478C26.6249 18.8478 26.411 18.7582 26.2739 18.579C26.1369 18.3998 26.0859 18.1716 26.1196 17.895L26.3766 16.0855C26.411 15.8488 26.5057 15.6604 26.6613 15.5205C26.8169 15.3805 27.0248 15.3099 27.2851 15.3099L27.2857 15.3086ZM26.3925 16.6721H28.6869L28.5941 17.4019H26.2739L26.3918 16.6721H26.3925Z" fill="white"/>
<path d="M31.7354 15.3293C31.8242 15.3293 31.903 15.358 31.9718 15.4156C32.04 15.4731 32.0798 15.5457 32.0897 15.6334L32.5466 18.8273H31.4328L31.2481 16.5306C31.2415 16.4632 31.2375 16.3972 31.2375 16.3331C31.2375 16.269 31.2395 16.2049 31.2428 16.1402H31.0991C31.0885 16.1944 31.0759 16.254 31.0607 16.32C31.0455 16.3861 31.0236 16.4528 30.9965 16.5201L30.129 18.8266H28.9742L30.3396 15.5922C30.374 15.5045 30.425 15.4385 30.4939 15.3947C30.5621 15.3508 30.6409 15.3286 30.7303 15.3286H31.7361L31.7354 15.3293ZM31.905 17.2859L31.8129 18.087H29.9496L30.0469 17.2859H31.905Z" fill="white"/>
<path d="M35.0615 15.2583C35.2019 15.2583 35.3396 15.2635 35.4747 15.2733C35.6098 15.2838 35.7422 15.2995 35.8726 15.3217C36.0024 15.344 36.1276 15.3734 36.2474 15.4107L36.1243 16.1967C35.9978 16.1935 35.8753 16.1915 35.7574 16.1915C35.6396 16.1915 35.519 16.1908 35.3959 16.1889C35.2727 16.1869 35.1356 16.1863 34.9853 16.1863C34.8721 16.1863 34.7774 16.2013 34.7006 16.232C34.6238 16.2628 34.5596 16.3131 34.5079 16.3844C34.4563 16.4557 34.4132 16.5512 34.3768 16.6708C34.3411 16.7905 34.3093 16.9403 34.2821 17.1194C34.2477 17.349 34.2325 17.5249 34.2358 17.6465C34.2391 17.7682 34.2676 17.8512 34.3205 17.895C34.3735 17.9388 34.4563 17.9611 34.5695 17.9611C34.6754 17.9611 34.7609 17.9473 34.8264 17.9205C34.8913 17.8937 34.9463 17.863 34.9906 17.8296C35.035 17.7963 35.0747 17.7708 35.1085 17.7538L35.2932 18.19C35.2522 18.237 35.1966 18.2998 35.1264 18.3776C35.0562 18.4555 34.9701 18.5346 34.8668 18.6157C34.7642 18.6968 34.645 18.7641 34.5099 18.8184C34.3748 18.8727 34.2219 18.8995 34.0504 18.8995C33.8179 18.8995 33.62 18.842 33.4577 18.7269C33.2948 18.6118 33.1823 18.4188 33.1187 18.1461C33.0551 17.8741 33.0565 17.5046 33.1214 17.0384C33.173 16.6767 33.2465 16.3805 33.3418 16.149C33.4379 15.9175 33.5624 15.737 33.7166 15.6069C33.8709 15.4767 34.0576 15.3865 34.2788 15.3355C34.4993 15.2845 34.7602 15.2596 35.0615 15.2596V15.2583ZM36.2315 16.8147L35.9441 18.8269H35.1277L35.0714 18.2848L34.9893 18.0971L35.1688 16.8147H36.2315Z" fill="white"/>
<path d="M40.2462 15.3291L39.9436 17.4028C39.892 17.7749 39.8059 18.0692 39.684 18.2876C39.5629 18.5053 39.3881 18.6616 39.1603 18.7565C38.9325 18.8513 38.6305 18.8984 38.2544 18.8984C37.8783 18.8984 37.6015 18.848 37.3744 18.746C37.1466 18.6446 36.9877 18.4818 36.897 18.2568C36.8063 18.0319 36.7851 17.7337 36.8328 17.3622L37.1307 15.3298H38.2392L37.9412 17.4034C37.9134 17.5793 37.9035 17.7167 37.9101 17.8167C37.9167 17.9168 37.9492 17.9855 38.0074 18.0247C38.0657 18.0633 38.1564 18.0829 38.2796 18.0829C38.4094 18.0829 38.5094 18.062 38.5796 18.0195C38.6497 17.9769 38.7027 17.9037 38.7385 17.7991C38.7742 17.6944 38.808 17.5493 38.8385 17.3629L39.1311 15.3304H40.2449L40.2462 15.3291Z" fill="white"/>
<path d="M41.7804 15.3086C41.989 15.3086 42.2003 15.3106 42.4141 15.3138C42.628 15.3171 42.8339 15.323 43.0326 15.3315C43.2312 15.34 43.4087 15.3563 43.5663 15.3799L43.4431 16.1502H42.2115C42.1261 16.1502 42.0632 16.1646 42.0241 16.1934C41.9851 16.2222 41.9599 16.2751 41.95 16.353L41.7447 17.808C41.7348 17.8721 41.7447 17.9211 41.7758 17.9551C41.8063 17.9891 41.8599 18.0061 41.9347 18.0061H43.1664L43.1458 18.787C42.9816 18.8105 42.8002 18.8255 42.6015 18.8327C42.4029 18.8393 42.2009 18.8439 41.9956 18.8452C41.7904 18.8471 41.595 18.8478 41.4103 18.8478C41.1196 18.8478 40.9057 18.7582 40.7687 18.579C40.6316 18.3998 40.5806 18.1716 40.6144 17.895L40.8713 16.0855C40.9057 15.8488 41.0004 15.6604 41.156 15.5205C41.3116 15.3805 41.5196 15.3099 41.7798 15.3099L41.7804 15.3086ZM40.8872 16.6721H43.1816L43.0889 17.4019H40.7687L40.8865 16.6721H40.8872Z" fill="white"/>
<path d="M21.1481 12.7191C21.1481 12.7191 21.2739 12.2038 21.2786 12.0782C21.2832 11.9533 21.0031 11.6538 20.9978 11.6479L20.7959 11.4713C20.7932 11.4674 20.6999 11.3451 20.5621 11.2045C20.4807 11.1215 20.3794 11.0927 20.3085 11.0836C20.2589 11.077 20.2145 11.0495 20.1926 11.0051C20.1628 10.9449 20.1079 10.8579 20.0165 10.7788C19.9066 10.684 19.7444 10.6421 19.6516 10.6251C19.6093 10.6173 19.5735 10.5924 19.5517 10.5558C19.508 10.4832 19.4113 10.3642 19.2299 10.3289C18.9656 10.2779 18.7326 10.4093 18.7266 10.4126C18.7226 10.4002 18.4068 9.37739 18.3379 9.28584C18.2684 9.19363 18.1956 9.19625 18.1042 9.17794C18.0638 9.16944 18.0188 9.17794 17.9817 9.19102C17.9254 9.20998 17.8638 9.19102 17.8241 9.1472C17.7983 9.11908 17.7711 9.08769 17.7493 9.06023C17.693 8.98895 17.5605 8.98567 17.4606 8.95755C17.3606 8.92943 17.2023 8.9981 17.2023 8.9981C17.2023 8.9981 17.1964 8.97914 17.1017 8.87385C17.0076 8.76856 16.8408 8.69401 16.6534 8.65674C16.466 8.61946 16.3501 8.75287 16.3501 8.75287L16.3408 8.72475C16.3408 8.72475 16.2435 8.58546 16.1594 8.52464C15.7131 8.43897 15.5933 8.61685 15.5145 8.84704L15.1741 8.61946L15.0132 8.47363L10.8873 5.35625L7.71684 2.88758C7.71684 2.88758 4.93111 0.766166 4.0458 0.0755909C3.98356 0.0265445 3.84583 -0.0512756 3.72863 0.0461631C3.72863 0.0461631 3.48893 0.196572 3.47237 0.229269C3.43198 0.309051 3.36775 0.412376 3.46906 0.526163C3.57037 0.639951 4.2087 1.69281 4.70995 2.33303C5.27147 3.04976 5.76411 4.02938 7.31888 4.7775C7.49899 4.86382 7.7718 5.02208 8.0903 5.21892C8.16181 5.26273 8.22538 5.31897 8.27901 5.38306C8.30285 5.41183 8.32868 5.44192 8.31212 5.45042C8.36245 5.45042 8.06911 5.51712 8.11943 5.51385C8.18168 5.50993 8.24193 5.50077 8.30285 5.48965C7.87178 5.63091 7.66916 5.81794 7.54997 5.91014C7.39701 6.02851 7.17718 6.60137 6.98051 6.93227C6.78319 7.26317 6.68982 7.99821 6.68982 7.99821C6.64215 8.11396 6.59778 8.42459 6.59778 8.42459L6.38257 8.44813C6.38257 8.44813 6.33357 8.75875 6.33622 8.82938C6.33953 8.90066 6.60241 8.87058 6.60241 8.87058L6.58056 9.02818C6.55143 9.1387 6.63288 9.23483 6.63288 9.23483C6.63288 9.23483 6.5448 9.42382 6.56467 9.54611C6.58453 9.6684 6.67592 9.78807 6.67592 9.78807C6.67592 9.78807 6.62095 9.88551 6.61764 9.91363C6.61433 9.94241 6.83749 10.1889 6.82093 10.2609C6.80504 10.3328 6.8792 10.391 6.92953 10.4459C6.97455 10.495 6.91893 10.7801 6.91032 10.9207C6.89841 10.8991 6.88649 10.8776 6.87457 10.8566C6.762 10.6506 6.73551 10.7193 6.62162 10.5153C6.62162 10.5153 6.59579 10.6984 6.59579 10.699C6.65208 10.9181 6.88119 11.6237 6.88119 11.6525C6.88119 11.6839 6.72161 12.742 6.71962 12.7531L6.75207 16.6264L5.38337 23.5969L10.6972 19.2717L9.87747 22.8939L12.5692 17.7225L12.1441 15.9895C12.1441 15.9895 16.3706 15.2368 16.9487 14.8653C17.3659 14.5972 17.9559 13.2723 18.0161 12.8224C18.034 12.9637 18.0565 13.0722 18.0678 13.1213C18.0717 13.1383 18.0777 13.1527 18.0876 13.167C18.1254 13.2233 18.2306 13.4031 18.1969 13.6359C18.1644 13.857 18.3108 14.093 18.3763 14.1865L18.179 14.0198C17.9426 14.1643 18.0413 14.4435 18.0413 14.4435L17.9943 14.5273C17.9943 14.5273 17.4672 14.9772 16.4567 15.4121C15.8197 15.6861 14.6404 15.8463 14.4855 15.8665C14.4742 15.8679 14.4629 15.8679 14.451 15.8665L13.3856 15.7567L13.3717 16.3276L13.9239 16.8664C13.9292 16.8717 13.9339 16.8756 13.9398 16.8795C14.0458 16.9567 15.1801 17.7774 15.4443 17.7774C15.7217 17.7774 17.8923 16.5297 18.4531 16.1942C18.8716 15.9437 19.2722 15.5258 19.4484 15.3297C19.502 15.2701 19.498 15.1799 19.4398 15.1256C19.3318 15.0243 19.4245 14.847 19.5709 14.8752C19.7569 14.9111 19.9311 14.9268 19.986 14.8752C20.0973 14.7705 20.3284 14.367 20.3992 14.2415C20.4125 14.2173 20.4191 14.1911 20.4178 14.1637C20.4125 14.0597 20.4019 13.7909 20.4317 13.736C20.4608 13.683 20.6019 13.7255 20.6628 13.7464C20.682 13.753 20.7018 13.7562 20.7224 13.7543L21.0621 13.7307L21.2799 13.5581L21.5309 13.0984L21.1495 12.7197L21.1481 12.7191ZM10.4893 5.54197C10.4973 5.54524 10.5045 5.5472 10.5125 5.55047C10.5151 5.55178 10.5171 5.55243 10.5198 5.55374C10.5098 5.54982 10.4992 5.54589 10.4893 5.54197ZM18.0413 11.9997C17.987 12.226 17.985 12.468 18.0009 12.6713C17.8996 12.4562 18.0267 11.6374 17.4327 11.6518C17.2672 11.6558 16.9262 11.523 16.4137 11.8683C16.3501 11.899 15.9025 12.3823 15.4966 12.7537C15.3787 12.8126 14.6821 12.8865 14.6762 12.8871L13.8293 12.844L12.0798 12.5844L11.7037 12.4928L11.1402 11.9245C11.0833 11.8788 11.1197 11.7931 11.0018 11.6917L11.0879 11.5354C11.0879 11.5354 11.1746 11.3164 11.2548 11.1195C11.3044 11.1352 11.3587 11.1561 11.411 11.1836C11.6825 11.3268 11.76 11.521 11.76 11.521C11.7633 11.4524 11.76 11.4203 11.76 11.4203C11.6911 11.1973 11.4534 11.0698 11.2991 11.0077C11.3693 10.8337 11.4349 10.631 11.4766 10.4289C11.5508 10.4558 11.6521 10.4963 11.7891 10.5597C12.0566 10.6833 12.0825 10.784 12.0838 10.8161C12.0838 10.7808 12.0792 10.6644 12.0057 10.5794C11.9136 10.4728 11.6733 10.3662 11.5018 10.3001C11.5415 10.0497 11.6839 9.62524 11.7176 9.53957C11.7229 9.52584 11.7295 9.50753 11.7355 9.48791C11.7858 9.51145 11.8501 9.54415 11.9275 9.58927C12.1215 9.7024 12.2407 9.81031 12.2407 9.81031C12.2348 9.76388 12.2176 9.69129 12.1143 9.5945C12.0196 9.50557 11.8428 9.42448 11.7646 9.39112C11.7878 9.30677 11.8077 9.22044 11.807 9.19821C11.8057 9.16028 11.8871 9.05238 11.9401 8.93663C11.9931 8.82023 11.9355 8.60442 11.9355 8.60442C11.9355 8.60442 12.0235 8.55864 12.0825 8.49652C12.1096 8.50371 12.1368 8.51025 12.1652 8.51679C12.5612 8.60704 12.8354 8.42655 12.7579 8.2951C12.8142 8.31668 12.8512 8.33172 12.8618 8.33892L14.9066 9.64813L15.3562 9.41401C15.3264 9.64944 15.3509 9.8914 15.3416 10.1726C15.3284 10.5682 15.8555 11.4903 16.0051 11.5995C16.1534 11.7081 16.6819 11.6015 16.6898 11.5995H17.0374C17.0599 11.5969 18.1671 11.4772 18.0413 12.001V11.9997Z" fill="#91CCEF"/>
<path d="M6.60838 9.13232C6.60838 9.14614 6.60772 9.15403 6.60772 9.15403C6.60772 9.15403 6.60972 9.14416 6.60838 9.13232Z" fill="#19398A"/>
<path d="M9.93309 5.3654C9.93309 5.3654 10.8694 5.4818 11.3203 6.2005C11.7421 6.87342 11.9686 7.81576 11.9686 7.81576L11.6176 7.75821C11.6176 7.75821 11.3971 5.81336 9.93376 5.36475L9.93309 5.3654Z" fill="white"/>
<path d="M7.7718 8.47692C7.7718 8.47692 8.54918 8.13556 9.23186 8.11006C9.59341 8.06101 10.0549 8.01981 10.7628 8.06101C11.4706 8.10221 12.3493 8.3167 12.4718 8.32717C12.5937 8.33763 12.6672 8.32717 12.6672 8.32717L12.2361 8.04401C12.2361 8.04401 9.79868 7.4064 7.77246 8.47627L7.7718 8.47692Z" fill="white"/>
<path d="M9.6775 9.14471C9.6775 9.14471 10.2304 9.10809 10.5794 9.14733C10.9541 9.18983 11.3038 9.27419 11.6137 9.4076C12.0149 9.5809 12.2129 9.77054 12.2129 9.77054C12.2129 9.77054 12.1692 9.63844 12.0216 9.5482C11.907 9.47823 11.5335 9.23953 10.7714 9.10809C10.5542 9.07735 10.3205 9.02896 9.6775 9.14406V9.14471Z" fill="white"/>
<path d="M10.9912 10.2065C10.9912 10.2065 11.2462 10.219 11.5614 10.3563C11.7084 10.4053 11.9295 10.5322 11.9679 10.5669C12.0401 10.631 12.056 10.7049 12.056 10.7049C12.056 10.7049 11.6507 10.3596 11.0065 10.2922L10.9912 10.2065Z" fill="white"/>
<path d="M10.8449 10.1975L10.8575 10.2609C10.8575 10.2609 10.6568 10.2537 10.4529 10.259C10.292 10.2629 10.1311 10.2786 10.0483 10.2877C10.0483 10.2073 10.0483 10.2151 10.0483 10.2151C10.0483 10.2151 10.5602 10.1713 10.8456 10.1981L10.8449 10.1975Z" fill="white"/>
<path d="M11.0084 10.9683C11.0084 10.9683 11.323 11.0075 11.4812 11.1219C11.6388 11.2364 11.7136 11.3332 11.7468 11.4031C11.7468 11.4417 11.7514 11.477 11.7514 11.477C11.7514 11.477 11.6488 11.3135 11.4839 11.2102C11.2607 11.0709 11.0091 11.0546 11.0091 11.0546V10.9683H11.0084Z" fill="white"/>
<path d="M10.8575 10.9609L10.8601 11.0354C10.8601 11.0354 10.5456 11.0269 10.3973 11.0354C10.2013 11.0472 9.92184 11.0884 9.92184 11.0884L9.93177 11.021C9.93177 11.021 10.4456 10.9256 10.8575 10.9602V10.9609Z" fill="white"/>
<path d="M7.64731 10.9931C7.64731 10.9931 7.93999 10.7446 8.22339 10.6249C8.53593 10.4922 9.04315 10.2875 9.87151 10.2378C9.87284 10.2574 9.87217 10.2986 9.87217 10.2986C9.87217 10.2986 9.1524 10.3123 8.35185 10.6243C8.1234 10.7054 7.79365 10.8636 7.64665 10.9925L7.64731 10.9931Z" fill="white"/>
<path d="M9.77682 11.0332L9.76689 11.1071C9.76689 11.1071 8.79682 11.2019 8.21545 11.5577C8.49289 11.3759 8.91734 11.1313 9.77616 11.0332H9.77682Z" fill="white"/>
<path d="M15.9224 8.63111C15.9224 8.63111 15.7303 8.66642 15.5992 9.09999C15.4919 9.45508 15.535 9.61988 15.535 9.61988C15.535 9.61988 15.9349 9.29552 16.1726 9.26871C16.1726 9.26871 16.1336 8.99536 16.2481 8.85933C16.2481 8.85933 16.0773 8.58075 15.9224 8.63045V8.63111Z" fill="white"/>
<path d="M16.6693 8.86945C16.5918 8.82237 16.4931 8.82825 16.419 8.87992C16.3978 8.8943 16.3792 8.91131 16.3693 8.92962C16.3349 8.99044 16.3375 9.1827 16.3508 9.23959C16.3508 9.23959 16.6646 9.16962 16.8633 9.19905C16.8037 9.00613 16.7448 8.91588 16.6686 8.86945H16.6693Z" fill="white"/>
<path d="M15.6687 9.94181L15.5966 10.0255C15.5966 10.0255 15.6383 10.4205 15.7959 10.8063C15.8204 10.858 15.8475 10.9129 15.8475 10.9129C15.8475 10.9129 16.0038 10.7815 16.123 10.7337C16.0362 10.3361 16.027 9.77571 16.0541 9.70966C16.0541 9.70966 15.9833 9.69985 15.8025 9.82279C15.7528 9.85614 15.7085 9.89734 15.6694 9.94181H15.6687Z" fill="white"/>
<path d="M16.1587 9.68678C16.1587 9.68678 16.413 10.4545 16.4587 10.5323C16.5574 10.4689 17.0513 10.3015 17.3652 10.3211C17.4546 10.2917 17.5049 9.9876 17.4612 9.82934C17.4175 9.67109 17.3308 9.57365 17.2394 9.56253C17.148 9.55141 16.6805 9.49387 16.1594 9.68678H16.1587Z" fill="white"/>
<path d="M16.6031 12.0614C16.6031 12.0614 16.8136 11.8829 17.0335 11.9228C17.2533 11.9633 16.9878 12.7919 16.7408 13.2091C16.4938 13.6263 16.4031 13.6479 16.2005 13.7081C15.4648 13.9252 14.6722 13.8101 14.6722 13.8101L14.8642 13.2647C14.8642 13.2647 15.3675 13.3249 15.7065 13.0633C15.9713 12.8586 16.4057 12.1733 16.6037 12.0608L16.6031 12.0614Z" fill="white"/>
<path d="M7.91019 12.6883C7.91019 12.6883 8.41145 12.4287 8.99613 12.5235C9.58149 12.6183 10.2675 13.0931 10.2675 13.0931L9.49872 13.8072L11.4978 12.8786L12.2957 12.9257L12.4195 12.8485C12.4195 12.8485 11.3203 12.7086 9.82053 12.3737C9.13982 12.222 8.6485 12.1363 7.91019 12.6876V12.6883Z" fill="white"/>
<path d="M12.3593 12.8866L10.0476 14.371L11.5143 12.7734L12.3593 12.8866Z" fill="white"/>
<path d="M14.2868 13.182L13.6266 13.1107L13.1598 13.0264L11.86 13.7588L10.5138 14.4252C10.5138 14.4252 11.3018 14.2192 12.0719 13.8399C12.7446 13.5083 12.983 13.337 12.983 13.337C12.5135 14.1812 11.815 14.9974 11.815 14.9974C13.1419 14.1616 14.2868 13.182 14.2868 13.182Z" fill="white"/>
<path d="M16.0402 11.2972C16.0402 11.2972 16.1223 11.4182 16.2488 11.4261C16.3746 11.4339 16.654 11.2593 16.8964 11.2403C17.1387 11.2214 17.4274 11.171 17.4274 11.171C17.4274 11.171 17.4321 10.7963 17.3222 10.6655C17.3222 10.6655 16.7136 10.7263 16.0402 11.2972Z" fill="white"/>
<path d="M19.0776 10.4318C19.0776 10.4318 19.2325 10.4893 19.3954 10.7385C19.4543 10.8287 19.4093 11.24 19.3769 11.31C19.3444 11.38 18.9743 11.1995 18.9557 11.1086C18.9372 11.0184 19.0233 10.5763 18.9557 10.4618C18.8882 10.3481 19.0776 10.4311 19.0776 10.4311V10.4318Z" fill="white"/>
<path d="M19.5464 10.8735C19.5464 10.8735 19.4914 11.5066 19.4868 11.6694C19.4821 11.8322 19.702 12.0539 19.7708 12.0265C19.8397 11.9996 19.8761 11.8048 19.8761 11.8048C19.8761 11.8048 19.9675 11.8093 19.9675 12.0284C19.9675 12.2475 19.9814 12.4057 20.1416 12.4286C20.3019 12.4515 20.5078 12.275 20.5396 12.1618C20.5714 12.0487 20.7045 11.4928 20.4893 11.3843C20.2741 11.2757 20.1046 11.3254 20.1046 11.3254C20.1046 11.3254 20.0225 10.9278 19.8622 10.8735C19.702 10.8193 19.5616 10.7853 19.5464 10.8735Z" fill="white"/>
<path d="M20.7528 11.7129C20.7528 11.7129 20.9131 11.7417 21.0534 11.9169C21.1945 12.0922 21.0534 12.4564 21.0534 12.4564C21.0534 12.4564 20.7528 12.6467 20.7157 12.4061C20.6793 12.1648 20.7522 11.7129 20.7522 11.7129H20.7528Z" fill="white"/>
<path d="M11.029 9.49512C11.029 9.49512 11.264 9.50035 11.2925 9.59256C11.3203 9.68476 11.2733 10.2027 11.2733 10.2027L11.0733 10.1602C11.0733 10.1602 11.0667 9.58602 11.029 9.49577V9.49512Z" fill="white"/>
<path d="M11.0819 10.4357C11.0819 10.4357 11.1137 10.4377 11.1568 10.4481C11.2025 10.4593 11.2362 10.473 11.2362 10.473C11.2362 10.473 11.2144 10.677 11.1184 10.9098C11.1038 10.7424 11.0819 10.4351 11.0819 10.4351V10.4357Z" fill="white"/>
<path d="M11.6686 6.24654L14.1007 8.16655L11.7084 6.59118L11.3971 6.03662L11.6686 6.24654Z" fill="white"/>
<path d="M18.9769 11.867C18.9769 11.867 19.0756 11.9906 18.9769 12.0946C18.8782 12.1985 18.5425 12.5661 18.5061 12.6864C18.4697 12.8067 18.4392 12.9094 18.5061 13.0421C18.573 13.1749 18.671 13.3613 18.665 13.4038C18.6591 13.4463 18.4829 13.5306 18.4088 13.3436C18.3353 13.1566 18.1519 12.3391 18.4088 11.9997C18.6657 11.6603 18.9769 11.867 18.9769 11.867Z" fill="white"/>
<path d="M10.8111 10.019C10.8111 10.019 10.7707 9.87315 10.6615 9.82672C10.6502 9.76132 10.6217 9.33887 10.6217 9.33887L10.8111 10.019Z" fill="white"/>
<path d="M10.5145 10.847C10.2331 10.8176 10.0476 10.7417 10.0476 10.7417L10.2933 10.9294H10.6529L10.7548 10.8561C10.7548 10.8561 10.578 10.8535 10.5151 10.847H10.5145Z" fill="#19398A"/>
<path d="M3.89549 0.140332L10.3436 5.22415C10.3436 5.22415 9.78543 4.9096 9.1001 4.99199C9.1001 4.99199 6.27464 2.97521 4.88874 1.6163C3.99018 0.73412 3.5717 0.268507 3.5717 0.268507C3.5717 0.268507 3.6399 0.211613 3.72598 0.156027C3.7816 0.12006 3.77697 0.114828 3.85113 0.120714C3.86768 0.122022 3.88291 0.129869 3.89616 0.140332H3.89549Z" fill="white"/>
<path d="M15.6376 9.88044C15.6376 9.88044 16.3984 9.20622 17.6718 9.57047C17.6718 9.57047 17.6539 9.42856 17.5215 9.3854C17.389 9.34159 16.4733 9.12251 15.8588 9.51619C15.6376 9.64698 15.6555 9.77254 15.6376 9.88044Z" fill="#19398A"/>
<path d="M19.4907 10.7496C19.8682 10.7496 19.9721 10.698 20.1529 11.2067C20.4118 11.2067 20.623 11.3061 20.6893 11.637C20.9111 11.637 21.1998 11.8215 21.2336 12.3276C21.3998 12.2086 21.4031 11.6285 20.878 11.4304C20.7561 11.2067 20.4847 10.8203 20.1761 10.917C20.1522 10.7496 19.9039 10.337 19.5808 10.4782C19.5126 10.3232 19.2272 10.2415 19.0199 10.3232C19.0199 10.3232 19.3901 10.4083 19.4901 10.7496H19.4907Z" fill="#19398A"/>
<path d="M10.7476 9.94631C10.7012 9.8783 10.6515 9.82991 10.5866 9.84888C10.3681 9.91362 10.1887 10.1137 10.1887 10.1137C10.1887 10.1137 10.4277 10.1183 10.5575 10.1137C10.7356 10.1072 10.7972 10.1262 10.7972 10.1262C10.7972 10.1262 10.7972 10.0202 10.7476 9.94697V9.94631Z" fill="#19398A"/>
<path d="M7.38377 7.80862C7.32815 7.78311 7.26259 7.79684 7.2222 7.84197L7.11162 7.96556L7.11427 8.10943L7.20896 8.04011L7.4288 8.12317L7.46124 7.95837C7.47316 7.8969 7.44138 7.83543 7.38443 7.80862H7.38377Z" fill="#19398A"/>
<path d="M6.99773 10.1032L7.38046 9.86913L7.4043 9.39502L7.31226 9.45191L6.8057 9.77496L6.99773 10.1032Z" fill="#19398A"/>
<path d="M12.691 8.45868C12.7122 8.44495 12.7215 8.43645 12.74 8.41552C12.6665 8.43907 12.5003 8.43122 12.2341 8.3704C11.4263 8.18402 11.3203 8.19645 11.3203 8.19645C11.1958 8.18337 11.031 8.17029 10.7959 8.15329C9.99335 8.09443 9.39343 8.14806 8.61672 8.27296C8.23134 8.33509 7.68241 8.62413 7.68241 8.62413C7.65261 8.78239 7.5652 9.79798 7.5652 9.79798C7.5652 9.79798 8.0903 9.50566 8.5697 9.36179C8.52666 9.11656 8.60082 8.95372 8.65049 8.87656L8.76703 8.85302C8.76703 8.85302 9.35768 8.73531 9.45303 8.77127C9.47819 8.78043 9.49805 8.79808 9.51395 8.81901C9.4517 8.82163 9.39012 8.8334 9.33053 8.84844L8.73193 9.00146L9.30669 9.09825C9.3643 9.1231 9.44839 9.12571 9.50732 9.12048C9.58811 9.11329 9.6232 9.10806 9.6232 9.10806C9.6232 9.10806 9.70465 9.08975 9.77418 9.07667C9.77749 9.07667 9.77947 9.07667 9.78278 9.07667C9.96091 9.05443 10.1178 9.0492 10.2145 9.0492C10.3337 9.04986 10.5661 9.05313 10.6383 9.06163C10.9475 9.09759 11.2965 9.18457 11.2965 9.18457C11.2965 9.18457 11.2197 9.07078 11.0919 8.96419C11.0078 8.89421 10.8316 8.79416 10.8316 8.79416C10.8316 8.79416 11.0124 8.80528 11.123 8.82817C11.2581 8.85629 11.2793 8.96288 11.317 9.03285C11.3296 9.0564 11.3799 9.18326 11.3832 9.24016L11.7574 9.38795L11.7719 9.39449C11.7719 9.39449 11.8256 9.36571 11.8865 9.31928C11.9381 9.3474 12.003 9.38795 12.0255 9.42653C12.0427 9.45661 12.05 9.49977 12.0487 9.54359C12.0725 9.56059 12.0951 9.57759 12.1136 9.59525C12.1215 9.60244 12.1282 9.60964 12.1354 9.61683C12.1593 9.56648 12.1732 9.51939 12.1732 9.48473C12.1732 9.41541 12.0229 9.30882 11.9534 9.2637C11.9606 9.25716 11.9673 9.25062 11.9739 9.24408C12.0613 9.15514 12.1659 9.01062 12.1725 8.94653C12.1758 8.91383 12.1798 8.84451 12.1732 8.78108C12.1851 8.76146 12.1964 8.74381 12.2076 8.73138C12.2738 8.65225 12.5321 8.56397 12.691 8.46065V8.45868Z" fill="#19398A"/>
<path d="M21.36 13.0966C21.36 13.0966 21.2249 13.1941 21.0991 13.4046C21.0389 13.506 21.0184 13.5655 21.0051 13.6361C20.966 13.6342 20.9137 13.6525 20.8753 13.6531C20.439 13.659 20.2814 13.5171 20.233 13.5119C19.7861 13.1915 19.0392 12.6539 19.0206 12.6251C18.9948 12.5839 19.1007 12.4564 19.2133 12.3289C19.2464 12.5905 19.5351 12.6049 19.5351 12.6049C19.5351 12.6049 19.5735 12.8514 19.8126 12.9586C20.0662 13.0724 20.2344 12.9338 20.2344 12.9338L20.4343 13.0437C20.7058 13.1686 20.9892 12.9998 21.0336 12.9011C21.0779 12.8024 21.0336 12.6487 21.0336 12.6487C20.6118 12.8239 20.5204 12.3086 20.5204 12.3086C20.5204 12.3086 20.3125 12.6814 20.0456 12.5715C19.7794 12.4616 19.9086 12.0065 19.9086 12.0065C19.8198 12.204 19.6834 12.1778 19.5258 12.049C19.3927 11.9424 19.3133 11.8299 19.4245 11.3434C19.3577 11.552 19.0358 11.3656 18.8802 11.2074C18.8028 11.1282 18.7796 10.9347 18.7769 10.7601C18.8273 10.7424 18.863 10.7104 18.8683 10.6522C18.8941 10.3631 18.4598 9.5156 18.3604 9.3253C18.3604 9.3253 18.3538 9.31091 18.3412 9.28998L18.3386 9.28541C18.2929 9.21347 18.1677 9.07483 17.9314 9.18927C17.8122 9.03625 17.5129 8.84137 17.2473 8.95516C17.1454 8.83745 16.7818 8.43723 16.3746 8.69293C16.3746 8.69293 16.2309 8.41042 15.921 8.50263C15.921 8.50263 16.27 8.64388 16.323 8.88846C16.4296 8.7956 16.5647 8.74132 16.7679 8.78906C16.9712 8.83679 17.1176 9.0369 17.197 9.17227C17.2857 9.11996 17.6135 9.04475 17.883 9.39396C18.0227 9.26317 18.1843 9.26579 18.3439 9.32006C18.3737 9.48551 18.5015 10.2062 18.5015 10.3605C18.5015 10.5351 18.1949 10.49 18.1949 10.49C18.1949 10.49 18.2538 10.9079 18.1949 11.1871C18.1677 11.3159 18.0545 11.3918 17.94 11.4376C17.8572 11.3794 17.7559 11.3238 17.6287 11.2858C17.4897 11.2446 17.3089 11.2656 17.1328 11.3094C16.813 11.3015 16.5865 11.4323 16.4733 11.4604C16.466 11.4624 16.4574 11.4637 16.4494 11.4657C16.4402 11.4676 16.4296 11.4696 16.4163 11.4722C16.323 11.4899 16.2236 11.4977 16.1985 11.4997C16.1693 11.4997 16.1442 11.4971 16.1303 11.4892C16.0064 11.4173 15.9515 11.297 15.9515 11.297C15.9515 11.297 16.7746 10.3939 18.0419 10.5515C18.0088 10.4893 17.9035 10.4364 17.8367 10.4272C17.8307 10.318 17.7956 9.89816 17.585 9.77129C17.585 9.77129 17.6426 10.3337 17.4202 10.4056C17.4202 10.4056 16.9209 10.3834 16.4071 10.6567L16.1078 10.0453C16.1078 10.0453 16.0905 10.4507 16.1859 10.7718C16.0488 10.849 15.9349 10.9249 15.7866 11.0347C15.6098 10.6482 15.4297 10.1087 15.4416 9.55614C15.4502 9.15919 15.6025 8.68377 15.8482 8.50916C15.6025 8.54382 15.5853 8.5811 15.4132 8.98263C15.384 9.04998 15.3595 9.1278 15.3383 9.2102L15.098 9.06699C15.098 9.06699 14.9867 9.15854 14.9225 9.29587C14.9172 9.02055 14.9874 8.79625 15.1741 8.61707L15.0867 8.53794C15.0867 8.53794 14.8404 8.62099 14.8106 8.88388C14.7781 9.16835 14.7331 9.13761 14.7331 9.13761C14.7331 9.13761 14.6503 9.02971 14.6563 8.87276C14.6616 8.73347 14.7914 8.50851 15.0125 8.47124L4.51331 0.434179L4.5431 0.586549L14.4331 8.26982L14.2756 8.42284C14.2756 8.42284 13.7306 8.09064 12.9022 7.56878L11.5984 6.735C11.8209 7.22873 11.9679 7.81663 11.9679 7.81663C12.45 8.09194 12.7718 8.32737 12.7718 8.32737C13.7558 8.92704 14.4914 9.39462 14.4914 9.39462L14.8867 9.64966L15.239 9.90404C15.2211 10.3749 15.3608 11.0602 15.4959 11.31C15.6376 11.5723 15.8204 11.7933 15.9674 11.8633C16.1117 11.9319 16.2952 11.8659 16.3024 11.8633C16.3283 11.8711 16.3554 11.877 16.3819 11.8809C16.3289 11.9306 16.2707 11.9915 16.2389 12.0228C16.2389 12.0228 15.9469 12.3282 15.6727 12.5467C15.3986 12.7651 15.3125 12.7762 15.0291 12.8285C14.7464 12.8808 14.3371 12.8403 13.9511 12.8148C13.8392 12.8076 13.5326 12.7991 13.5326 12.7991L13.3763 12.9874C13.3763 12.9874 13.53 13.026 13.8591 13.0509C14.0623 13.0666 14.2617 13.0888 14.451 13.1058C13.8703 13.8552 12.9208 14.4909 12.9208 14.4909C13.577 14.2378 13.9008 14.0691 14.1855 13.8814C13.9571 14.1351 13.7452 14.3947 13.5425 14.6609C13.3209 14.9517 13.0821 15.3307 12.8261 15.7981C12.7903 15.8642 9.59473 16.2127 9.45303 16.2264C9.59208 16.1244 10.3443 15.7183 10.7224 15.4162C11.5057 14.7917 12.1858 14.2548 12.4248 13.7434C11.2184 14.6112 10.7224 14.8885 8.22273 15.4489C8.26643 15.3253 8.67433 15.0232 8.91403 14.8374C10.141 13.8853 9.8841 14.0841 10.6741 13.4465C9.99335 13.7748 9.06699 14.211 8.50084 14.4843C8.6677 14.3306 8.69287 14.3169 8.80676 14.2227C8.97958 14.0795 9.15373 13.9389 9.32457 13.7937C9.50335 13.6414 9.67883 13.4844 9.95031 13.2477C9.61526 13.0293 8.70412 12.4374 7.4043 13.1045C7.66056 12.6225 8.39423 11.8953 9.82053 12.2125C10.1602 12.2883 10.5814 12.4159 11.1919 12.548C11.4991 12.6147 11.8097 12.6657 12.1189 12.7239L12.738 12.8207C12.3036 13.0901 11.1886 13.7852 10.4761 14.2718C10.4761 14.2718 13.1671 13.0365 13.3717 12.7749L12.9201 12.7082L12.591 12.6598H12.5923C12.4294 12.6389 11.8957 12.5113 11.7209 12.4773L11.2468 11.9496L11.3918 11.8639C11.3918 11.8639 11.9381 11.4689 12.007 11.3218C12.0739 11.2388 12.0805 11.1649 12.0838 11.0995C12.0871 11.0367 12.0639 10.9883 12.0447 10.9582C12.0725 10.9203 12.0911 10.883 12.0864 10.851V10.8497C12.0864 10.8412 12.0851 10.8287 12.0838 10.8157C12.0838 10.8228 12.0838 10.8268 12.0838 10.8268C12.0838 10.8268 12.0838 10.8202 12.0838 10.8111C12.0838 10.8098 12.0838 10.8085 12.0838 10.8065V10.8052C12.0765 10.7646 12.0315 10.6705 11.7898 10.5586C11.5051 10.4265 11.3647 10.3899 11.3349 10.3827C11.2448 10.3612 11.117 10.3324 10.9972 10.3128C10.9475 9.95701 10.8363 9.50709 10.7866 9.31353C10.9296 9.33576 11.08 9.36846 11.2362 9.41816C11.2899 9.43516 11.3375 9.45282 11.3859 9.46982C11.3892 9.59407 11.3912 9.90731 11.3521 10.2448C11.3932 10.2585 11.4627 10.2833 11.5435 10.3154C11.5574 10.2663 11.5719 10.2134 11.5872 10.1545L11.6488 10.3598C11.6997 10.3821 11.7514 10.4069 11.7997 10.4324L11.7971 10.3723C11.7971 10.3723 11.7918 10.3605 11.8501 10.3121C11.8719 10.2938 11.9202 10.2474 11.9719 10.1957C11.9739 10.2624 11.9759 10.418 11.962 10.5371C11.9785 10.5508 11.9937 10.5645 12.0057 10.5783C12.0176 10.592 12.0269 10.6064 12.0355 10.6208C12.052 10.505 12.0798 10.2722 12.0699 10.0976C12.0778 10.0898 12.0845 10.0832 12.0917 10.076C12.1275 10.0715 12.1659 10.0558 12.1964 10.0126C12.2434 9.94655 12.2527 9.87004 12.2401 9.80922C12.2381 9.80726 12.1196 9.70066 11.9275 9.58818C11.8421 9.53848 11.7732 9.50383 11.7209 9.48028C11.66 9.45478 11.2581 9.28933 11.0515 9.24159C10.8277 9.19058 10.3807 9.10818 9.91323 9.16115C9.4676 9.21151 8.97031 9.30175 8.64387 9.42797C8.31742 9.55352 8.06514 9.61238 7.56852 9.889C7.47714 9.94132 7.41887 10.095 7.41887 10.095C7.41887 10.095 7.47581 10.063 7.57183 10.0126L7.50892 10.333V10.3343L7.23876 10.8255C7.23876 10.8255 7.30365 10.9589 7.41887 11.1511C7.46654 11.0812 7.74796 10.8784 7.78835 10.8497C7.78835 10.8497 8.13334 10.5907 8.5942 10.4475C8.97892 10.3285 9.16962 10.2859 9.16962 10.2859C8.76107 9.89096 8.59619 9.61434 8.58229 9.59342C9.20803 9.375 9.56493 9.33118 9.88079 9.29652C9.89734 9.29456 9.91588 9.29325 9.9331 9.29129L9.9172 10.3147C9.66558 10.3357 9.40138 10.3703 9.16962 10.4226C8.55183 10.5626 8.1638 10.7457 7.95257 10.8686C7.74134 10.9916 7.4672 11.2309 7.4672 11.2309L7.50561 11.2898L8.14062 11.537C8.14062 11.537 8.49223 11.3493 8.57765 11.31C8.79947 11.2087 9.20737 11.1093 9.39012 11.0766C9.39012 11.0766 9.15638 10.8856 9.10937 10.8346C8.96237 10.6764 8.90741 10.6025 8.89085 10.5789C9.17293 10.4691 9.76954 10.4069 9.91124 10.3978C9.898 10.5044 9.84701 10.8967 9.79338 11.125C9.71723 11.1374 9.63843 11.1498 9.54772 11.1622C9.13188 11.2185 8.62797 11.3964 8.41939 11.4905C8.26511 11.5598 8.17837 11.6187 8.14261 11.6449L7.99296 11.6102L7.28776 11.2878C7.25399 11.2453 7.20631 11.1537 7.15731 11.0524L7.18181 10.624L7.41887 10.0943L7.007 10.3311L6.94542 10.2304L6.62361 9.70197L6.76664 9.60584L7.42416 9.20497L7.44006 8.73478C7.26988 8.80606 6.82093 9.09511 6.74545 9.18404C6.73618 9.19516 6.72757 9.20693 6.71896 9.2187L6.69711 9.03821C6.70837 9.02775 6.72095 9.01532 6.7375 8.99963C6.84808 8.895 7.46787 8.51571 7.46787 8.51571L7.497 8.2332C7.49502 8.24824 7.48177 8.2914 7.40099 8.3241C7.30166 8.36399 7.14208 8.33914 7.0123 8.34045C6.78981 8.34241 6.72293 8.64649 6.72293 8.64649L6.67989 8.91658L6.62427 8.87342C6.63685 8.70993 6.65606 8.52224 6.68585 8.449C6.74214 8.30906 7.03018 8.1593 7.03018 8.1593C7.03018 8.1593 7.0176 7.94611 7.11692 7.83298C7.21691 7.71985 7.31557 7.67276 7.31557 7.67276C7.31557 7.67276 7.54203 7.5969 7.65923 7.73685C7.65923 7.73685 7.71485 7.85194 7.70227 8.02459C7.68241 8.29467 7.68241 8.36203 7.68241 8.36203C7.68241 8.36203 7.85523 8.22666 8.22472 8.07494C8.25584 7.88791 8.3896 6.94034 8.03534 6.25827C8.03534 6.25827 8.41674 6.62186 8.46641 7.32944C8.49753 7.77739 8.4823 7.91865 8.48031 7.97947C8.7273 7.89053 8.95906 7.83036 9.34443 7.76562C10.8316 7.59167 11.366 7.7205 11.366 7.7205C11.366 7.7205 11.2124 6.30143 10.4781 5.83058C9.71856 5.27276 8.54256 5.3957 8.54256 5.3957C8.54256 5.3957 8.6677 5.31265 9.05573 5.25641C9.55964 5.18317 10.1807 5.30873 10.1807 5.30873C9.92052 5.18186 9.57156 5.06546 9.04381 5.08769C8.0605 4.39843 7.13811 3.71374 6.45543 3.12976C3.89485 0.94099 3.47239 0.229492 3.47239 0.229492C3.47239 0.229492 3.32737 0.379247 3.45517 0.609438C3.58297 0.839628 5.00529 3.05718 5.74162 3.82099C6.26009 4.35854 7.04011 4.84377 7.88569 5.39832C7.70161 5.49968 7.57183 5.60105 7.50627 5.65859C7.50627 5.65859 6.92158 5.93979 6.67327 6.66633C6.52098 7.11298 6.57462 8.40061 6.57462 8.40061C6.57462 8.40061 6.38987 8.41304 6.36802 8.45685C6.34617 8.50066 6.30181 8.81064 6.30379 8.86818C6.30578 8.92508 6.32432 9.01009 6.38193 9.05521L6.3806 9.05783L6.38855 9.51756L6.4051 9.88246L6.64414 10.3167C6.25479 10.2735 5.68599 10.2945 5.07217 10.607C3.95775 11.1747 3.84783 11.7338 2.94928 11.2891C2.94928 11.2891 3.19825 12.1392 4.49476 11.8875C4.49476 11.8875 4.31333 12.4675 3.58231 12.7749C3.22937 12.9233 2.22355 12.9279 2.22355 12.9279C2.22355 12.9279 3.14462 13.4491 4.18818 13.3961C3.8326 13.6342 3.01814 13.78 3.01814 13.78C4.58482 14.4457 5.67606 13.4458 6.02304 12.8926C6.20712 12.5996 6.41835 12.3989 6.61302 12.2602C6.65208 12.3537 6.68387 12.3806 6.69711 12.4061C5.33174 13.7499 5.20924 15.7641 5.16222 17.482C4.97947 18.8697 5.38339 23.5958 5.38339 23.5958L11.0906 17.0661C11.0389 17.4873 10.9151 18.0261 10.8436 18.2772C10.4178 19.7107 8.12672 23.52 8.12672 23.52C8.91602 22.7404 10.684 20.2306 11.6706 18.6624C11.5309 19.0626 10.8893 23.0275 10.8893 23.0275C11.3402 21.133 12.7883 18.5382 13.0181 17.9509C13.1697 17.5638 12.9267 16.9478 12.7433 16.5717C13.2644 16.9576 14.3159 17.6821 15.0947 17.8685C14.8563 18.2655 15.1569 18.6127 15.531 18.5113C15.9469 18.3995 18.6001 16.5783 18.9166 16.3265C19.1822 16.1159 19.2643 15.7837 19.2842 15.681C19.3113 15.681 19.3332 15.6797 19.3464 15.6745C19.4576 15.6307 20.0569 14.929 20.1238 14.8963C20.1589 14.8786 20.1569 14.8159 20.1469 14.7603C20.2589 14.6897 20.3919 14.434 20.4899 14.2057C20.6118 13.9206 20.5621 13.748 20.5621 13.748C20.6336 13.7741 20.7528 13.7964 20.8429 13.7911C20.9958 13.7813 21.0859 13.8114 21.0859 13.8114C21.0859 13.8114 21.1183 13.7885 21.1322 13.782C21.2653 13.7238 21.4971 13.4256 21.5448 13.2752C21.5964 13.1136 21.4984 13.007 21.3594 13.0979L21.36 13.0966ZM12.0163 11.1773C11.9977 11.2446 11.8911 11.2819 11.8527 11.293C11.854 11.2486 11.8547 11.1949 11.8547 11.1374C11.8739 11.123 11.903 11.0995 11.9361 11.0707C11.9745 11.0877 12.0315 11.1217 12.0163 11.1766V11.1773ZM11.9692 10.7306C11.9666 10.7731 11.9487 10.8588 11.8487 10.9222C11.8434 10.8235 11.8335 10.7261 11.8169 10.6463C11.864 10.6698 11.9229 10.6999 11.9692 10.7306ZM12.0308 9.78241C12.0666 9.80726 12.0851 9.82164 12.0851 9.82164C12.0851 9.82164 12.1315 9.84976 12.1268 9.90535C12.1242 9.93478 12.0864 9.97663 12.0514 10.01L11.9977 9.82295C12.009 9.80987 12.0202 9.79614 12.0308 9.78241ZM11.7554 10.2533L11.6944 10.0688C11.7739 10.0146 11.862 9.95113 11.9242 9.8975L11.9606 10.0917C11.8746 10.1637 11.756 10.2533 11.756 10.2533H11.7554ZM11.7057 9.60192C11.8057 9.649 11.8865 9.69282 11.9461 9.72878C11.858 9.79483 11.7044 9.8975 11.6415 9.93936C11.6733 9.80791 11.6991 9.68301 11.7064 9.60257L11.7057 9.60192ZM10.9992 10.3925C11.0819 10.4037 11.2846 10.4553 11.3197 10.4664C11.2998 10.6371 11.2409 10.8313 11.1925 10.97C11.2223 10.9791 11.2693 10.9942 11.3256 11.0184C11.4031 10.8392 11.4667 10.6077 11.4892 10.522C11.5951 10.558 11.6872 10.5907 11.7216 10.6031C11.7315 10.6816 11.7567 10.8974 11.764 11.1132C11.7673 11.2172 11.7554 11.3022 11.7395 11.3702C11.7468 11.3865 11.7534 11.4022 11.7587 11.4199C11.7587 11.4199 11.762 11.4513 11.7587 11.5206C11.7587 11.5206 11.6812 11.3264 11.4097 11.1832C11.3157 11.1335 11.215 11.1054 11.1482 11.0903C11.1482 11.0903 11.0853 11.0759 10.9912 11.0648C10.9926 10.9824 10.9945 10.798 10.9992 10.3932V10.3925ZM10.9886 11.1459C11.0224 11.1498 11.0594 11.1564 11.0992 11.1649C11.08 11.2427 11.0025 11.3826 10.9303 11.5023C10.9608 11.3584 10.9826 11.193 10.9886 11.1459ZM10.0457 9.28279C10.2172 9.27102 10.4211 9.2684 10.6502 9.29391C10.6807 9.39919 10.729 9.57118 10.7588 9.71309C10.8171 9.98644 10.8674 10.2147 10.8859 10.2977C10.8806 10.2977 10.8747 10.2958 10.8694 10.2958C10.735 10.2833 10.4019 10.2814 10.0258 10.3075C10.0311 10.1375 10.0424 9.50971 10.0463 9.28279H10.0457ZM10.0198 10.3919C10.2874 10.3729 10.676 10.3605 10.8932 10.3795C10.8932 10.4024 10.8932 10.4383 10.8932 10.4893C10.8648 10.4743 10.8244 10.4579 10.7754 10.4521C10.7197 10.4449 10.6946 10.4959 10.5516 10.4547C10.4615 10.4285 10.3721 10.4076 10.1947 10.526C10.0728 10.607 10.0616 10.6482 10.0616 10.6482C10.0616 10.6482 10.4926 10.6966 10.6251 10.6966C10.7615 10.6966 10.8449 10.6849 10.8932 10.6751C10.8932 10.7718 10.8926 10.8948 10.8919 11.0543C10.8694 11.053 10.8462 11.0524 10.8224 11.0517C10.3635 11.0445 10.1324 11.0713 9.9033 11.1073C9.93243 10.9549 10.0059 10.5639 10.0205 10.3919H10.0198ZM9.77153 11.21C9.72915 11.363 9.66956 11.5494 9.63049 11.6664L9.48481 11.297L9.46693 11.259C9.57354 11.2401 9.67485 11.2237 9.77153 11.21ZM8.39158 11.5978L9.15506 11.7554L9.59274 11.7796C9.59274 11.7796 9.67949 11.8247 9.76689 11.6259C9.83774 11.465 9.87549 11.2643 9.88674 11.1936C10.4648 11.1197 10.8297 11.1367 10.8297 11.1367C10.8297 11.1367 10.8522 11.1354 10.8899 11.1367C10.8859 11.21 10.8641 11.3447 10.8422 11.4657L9.87218 11.4807C9.87218 11.4807 9.8596 11.5533 9.8351 11.6122C9.80662 11.6802 9.76623 11.7358 9.76623 11.7358C9.76623 11.7358 10.6025 11.7397 10.8164 11.7103H10.827L10.8575 11.7057L10.9972 11.6939C11.1078 11.535 11.1992 11.3087 11.2389 11.2048C11.3157 11.2329 11.3958 11.2715 11.472 11.3264C11.558 11.3885 11.607 11.4421 11.6349 11.4794C11.4819 11.6102 11.2647 11.7789 11.0555 11.8842C10.6092 11.8907 10.2099 11.8907 9.702 11.8934C9.50666 11.8947 9.32987 11.8888 9.16168 11.8809L8.25783 11.6704C8.2916 11.6501 8.33397 11.6252 8.39158 11.5965V11.5978ZM14.6768 16.4691C14.5113 16.4991 14.351 16.5253 14.2034 16.5436C14.0961 16.5567 13.9895 16.5201 13.9127 16.4442H13.9114C13.6849 16.2199 13.9114 16.1637 13.9114 16.1637L14.749 16.0002C14.7066 16.1702 14.6834 16.3265 14.6762 16.4684L14.6768 16.4691ZM14.9933 14.8531C14.9933 14.8531 14.508 14.8793 14.0868 14.7642C14.2716 14.3071 14.4795 13.8107 14.6331 13.4315C14.6954 13.3137 14.7305 13.2013 14.7497 13.1267C15.0682 13.1418 15.3383 13.1202 15.5151 12.9933C15.7859 12.7978 16.3885 12.1131 16.5878 11.8829C16.6772 11.8744 16.7414 11.8567 16.7414 11.8567C16.9514 11.809 17.0487 11.79 17.1268 11.7861C17.1579 11.7874 17.5281 11.8103 17.6718 11.9692C17.6731 11.9712 17.6751 11.9725 17.6764 11.9745C17.8367 12.1543 17.889 12.3949 17.8804 12.6343C17.8479 13.5564 16.9706 14.6321 16.8315 14.6589C16.6805 14.6883 16.3117 14.8643 14.9933 14.8525V14.8531ZM15.2575 16.3455C15.2609 16.1584 15.2986 15.9989 15.335 15.8864L15.5741 15.84C15.5794 15.8393 15.5833 15.838 15.5833 15.838C15.5833 15.838 16.1025 15.7438 16.7865 15.4339C16.7759 15.5542 16.7739 15.7065 16.8017 15.8642C16.2713 16.0669 15.7449 16.2284 15.2582 16.3461L15.2575 16.3455ZM15.4774 17.002L16.8209 15.9564C16.8719 16.1597 16.9785 16.3605 17.1851 16.4998C16.2428 16.8183 15.4774 17.002 15.4774 17.002ZM18.6822 15.9152C18.4273 16.0316 18.1651 16.1401 17.9042 16.2408C17.6215 16.0911 17.2348 15.7713 17.3208 15.1612C17.5341 15.0395 17.7532 14.897 17.9711 14.7315C18.0969 14.9532 18.3584 15.1912 18.3584 15.1912C18.3584 15.1912 18.5359 14.7086 18.4028 14.6099C18.2697 14.5111 18.0611 14.1384 18.0611 14.1384C18.0611 14.1384 17.936 14.2698 17.9055 14.5111C17.9029 14.5307 17.9055 14.551 17.9088 14.5726C17.7479 14.674 16.7256 15.3044 15.78 15.545L16.8342 15.0788C16.9686 15.0493 17.7003 14.5791 17.9929 13.3307C18.0592 13.4883 18.132 13.6518 18.1022 13.8219C18.0459 14.1416 18.4803 14.4889 18.8021 14.7191C18.5578 14.7851 18.4134 15.3881 18.4803 15.4646C18.5233 15.5143 18.8292 15.6058 19.0683 15.6516C18.9809 15.7079 18.8312 15.806 18.6816 15.9145L18.6822 15.9152ZM19.702 14.7779C19.5133 14.738 18.914 14.3136 18.6253 14.1488C18.3366 13.984 18.3253 13.6662 18.3253 13.5675C18.3253 13.5132 18.2816 13.4158 18.2333 13.2994C18.2306 13.2902 18.1406 12.9495 18.1499 12.6676C18.1591 12.3897 18.2167 12.1916 18.2657 12.0686C18.3823 11.7848 18.573 11.6704 18.7087 11.6246C18.761 11.7057 18.8239 11.7528 18.9021 11.7364C19.1961 11.6749 19.1537 12.0157 19.1027 12.0876C18.9637 12.2491 18.7226 12.4368 18.6246 12.6572C18.5028 12.9312 18.7359 13.1398 18.8359 13.404C18.9359 13.6682 19.7947 14.3346 19.7947 14.3346L19.8463 13.7676L20.0569 14.721C19.9688 14.7812 19.849 14.808 19.702 14.7766V14.7779Z" fill="#19398A"/>
<path d="M11.0078 4.57756C11.031 4.58541 11.0535 4.5926 11.0766 4.60045C12.9228 5.38911 14.2087 6.47402 15.0768 7.69233L15.3767 7.92187C15.4727 7.88198 15.582 7.8532 15.7071 7.83554L15.7754 7.82574C15.8502 7.81004 15.925 7.80219 15.9992 7.80219C16.1766 7.80219 16.3494 7.84666 16.5037 7.93168C16.5382 7.92841 16.5733 7.9271 16.6077 7.9271C16.8136 7.9271 17.1222 7.98334 17.4493 8.24165C17.7214 8.2593 17.9413 8.36328 18.0956 8.46465C18.4035 8.47642 18.6803 8.6314 18.859 8.89298L18.8842 8.92568L18.9061 8.96884L18.9266 9.00612C18.9345 9.02116 18.9392 9.03162 18.9431 9.04012C19.0014 9.15129 19.1126 9.36971 19.2199 9.61168C19.3524 9.61756 19.4782 9.64568 19.596 9.6895C18.8776 7.52034 17.3791 5.09418 14.3166 3.715C12.2566 2.7877 10.3781 2.63729 8.77166 2.86486L11.0078 4.57625V4.57756Z" fill="url(#paint0_radial_3204_28455)"/>
<path d="M4.4815 21.2781C1.9772 20.2527 0.546932 18.4688 0.546932 18.4688C1.28657 20.3129 2.76716 21.7869 4.58016 22.7456C4.5497 22.3356 4.51395 21.8255 4.4815 21.2781Z" fill="url(#paint1_radial_3204_28455)"/>
<path d="M19.3053 16.8569C19.1961 16.9438 16.3064 18.9966 15.6687 19.1686C15.5654 19.196 15.4608 19.2104 15.3575 19.2104C15.0549 19.2104 14.7795 19.0947 14.5801 18.8926C13.9041 19.6447 13.1724 20.2424 12.4275 20.7021C12.0566 21.5267 11.6971 22.4233 11.5163 23.1838L11.3839 23.7986C12.2109 23.6377 13.0188 23.3663 13.7789 22.972C16.9202 21.343 18.6849 18.7814 19.5464 16.6162C19.4782 16.6999 19.3994 16.7823 19.3053 16.8569Z" fill="url(#paint2_radial_3204_28455)"/>
<path d="M3.08897 5.62649C3.76835 5.20731 4.56492 4.81624 5.45288 4.53439C5.36415 4.45461 5.27807 4.37352 5.19795 4.29047C5.15888 4.24992 5.11783 4.2048 5.07545 4.15771C3.80874 4.88491 3.0883 5.62649 3.0883 5.62649H3.08897Z" fill="url(#paint3_radial_3204_28455)"/>
<path d="M4.73777 3.75079C4.63977 3.62654 4.53846 3.49378 4.43582 3.35449C0.185405 4.80953 0 9.4624 0 9.4624C1.06012 6.25673 3.12143 4.59438 4.73777 3.75079Z" fill="url(#paint4_linear_3204_28455)"/>
<path d="M4.38549 18.1883C-0.0801379 16.2539 0.00792947 11.6972 0.034416 11.1655C-0.314544 16.1231 2.1348 18.3106 4.39211 19.2765C4.38218 18.8841 4.37953 18.5133 4.38615 18.1877L4.38549 18.1883Z" fill="url(#paint5_linear_3204_28455)"/>
<path d="M0.0344353 11.1653C0.0357326 11.1483 0.0363812 11.1313 0.0376785 11.1143C0.0376785 11.1143 0.0363812 11.1326 0.0344353 11.1653Z" fill="url(#paint6_linear_3204_28455)"/>
<path d="M1.53157 20.206C1.50773 20.172 1.48124 20.138 1.45873 20.104C1.45873 20.104 1.48257 20.1406 1.53157 20.206Z" fill="url(#paint7_linear_3204_28455)"/>
<path d="M19.8205 16.1405C19.7364 16.3557 19.5815 16.6369 19.3053 16.8566C19.2722 16.8827 18.9882 17.0861 18.5909 17.3627C18.0558 18.4313 17.3427 19.4142 16.4236 20.3147C15.0788 21.6324 13.3962 22.5296 11.5719 22.9684C11.5521 23.041 11.5329 23.1136 11.5163 23.1836L11.3428 23.9873C13.0221 23.7741 14.6676 23.1509 16.0819 22.0019C18.473 20.0596 19.5503 17.8977 19.9847 15.9849C19.9211 16.0496 19.8675 16.1006 19.8205 16.1412V16.1405Z" fill="url(#paint8_linear_3204_28455)"/>
<path d="M4.55565 22.4112C2.70226 21.6206 1.78318 20.5396 1.53089 20.2061C2.22815 21.2092 3.2982 22.0907 4.58081 22.7578C4.57286 22.6492 4.56426 22.5335 4.55565 22.4112Z" fill="url(#paint9_linear_3204_28455)"/>
<path d="M0.793946 12.2837C0.878041 10.9404 1.31043 8.65685 3.15787 7.13446C3.98557 6.45238 4.93908 5.98873 6.31704 5.78666C6.41968 5.64345 6.52827 5.52247 6.6342 5.42241C6.11508 5.07582 5.59661 4.70372 5.19865 4.29042C5.19468 4.2865 5.1907 4.28127 5.18673 4.27734C3.47504 4.97576 1.96332 6.4223 0.960149 8.83865C0.510539 10.157 0.454255 11.3021 0.572782 12.2673C0.631714 12.2719 0.707203 12.2778 0.794608 12.2837H0.793946Z" fill="url(#paint10_linear_3204_28455)"/>
<path d="M15.3767 7.92161C15.3906 7.91573 15.4065 7.91246 15.4204 7.90723C14.8324 6.84717 13.9412 5.86755 12.6149 5.10701C11.9341 4.7166 11.2164 4.4027 10.4834 4.17578L15.3767 7.92227V7.92161Z" fill="url(#paint11_linear_3204_28455)"/>
<path d="M0.789974 13.3638C0.79131 13.3697 0.793314 13.3756 0.794649 13.3815C0.794649 13.3815 0.794649 13.3756 0.793314 13.3657L0.789974 13.3638Z" fill="url(#paint12_linear_3204_28455)"/>
<path d="M1.73156 12.3334C1.76401 12.334 1.79579 12.3347 1.82691 12.3347C2.10701 12.3347 2.35068 12.2961 2.5288 12.2255C1.92094 11.495 2.06132 10.4539 2.0686 10.4055L2.15336 9.81436L2.46921 10.3238C2.48047 10.3414 2.76586 10.7809 3.29824 10.7809C3.34326 10.7809 3.38962 10.7776 3.43597 10.7717C3.65249 10.7423 3.80479 10.6338 4.01536 10.4827L4.07164 10.4422C4.33849 10.2525 4.72122 10.0498 5.08144 9.89545C5.22182 9.56978 5.39199 9.28008 5.58468 9.02308C5.5774 8.97926 5.5721 8.9348 5.57078 8.88967C5.56879 8.82755 5.59991 8.36455 5.70785 8.15202C5.74029 8.08793 5.78201 8.02973 5.83101 7.97872C5.8277 7.46275 5.85153 6.81273 5.97536 6.44913C6.13494 5.98221 6.39318 5.64935 6.63354 5.42243C6.4839 5.32237 6.33491 5.22035 6.18791 5.11572C2.43014 6.06526 0.403924 9.30428 0.609857 12.2706C0.85552 12.2889 1.32433 12.3223 1.73156 12.3334Z" fill="url(#paint13_radial_3204_28455)"/>
<path d="M4.42986 17.431C4.44045 17.0628 4.45701 16.6881 4.48482 16.3121C3.84649 15.751 3.41013 15.152 3.11745 14.5595C2.97774 14.519 2.83868 14.4686 2.70095 14.4058C1.6746 13.9383 1.0727 13.5603 0.790615 13.3647C0.791939 13.3706 0.793264 13.3765 0.794588 13.3824C1.44284 15.7543 2.97045 17.0112 4.40602 17.6959C4.41264 17.6004 4.42059 17.5108 4.42986 17.431Z" fill="url(#paint14_radial_3204_28455)"/>
<path d="M8.08036 2.33648C11.5872 2.36329 16.7613 3.54694 19.4848 9.65419C19.5351 9.66727 19.5841 9.68362 19.6318 9.70324C19.4709 8.43065 18.4915 4.15185 12.5433 2.11675C10.6118 1.5622 8.83258 1.57855 7.39503 1.81201L8.08103 2.33713L8.08036 2.33648Z" fill="url(#paint15_linear_3204_28455)"/>
<path d="M14.8748 2.4291C18.0883 4.30332 19.5113 7.43182 20.1417 9.8861C20.3125 9.97438 20.4661 10.1091 20.5906 10.2857C20.5985 10.2883 20.6058 10.2922 20.6131 10.2955C20.0052 5.08937 16.6673 2.31989 14.3961 1.31084C11.3203 -0.0559194 8.57897 0.489476 7.96383 0.775254C9.28484 0.685663 11.8328 0.653617 14.8748 2.42844V2.4291Z" fill="url(#paint16_linear_3204_28455)"/>
</g>
</g>
<defs>
<radialGradient id="paint0_radial_3204_28455" cx="0" cy="0" r="1" gradientUnits="userSpaceOnUse" gradientTransform="translate(4.95097 28.6292) scale(28.132 27.7831)">
<stop stop-color="#EB008B"/>
<stop offset="0.18" stop-color="#EB0388"/>
<stop offset="0.35" stop-color="#EC0E80"/>
<stop offset="0.5" stop-color="#ED2072"/>
<stop offset="0.65" stop-color="#EF3A5E"/>
<stop offset="0.8" stop-color="#F25B45"/>
<stop offset="0.94" stop-color="#F68326"/>
<stop offset="0.98" stop-color="#F78F1E"/>
</radialGradient>
<radialGradient id="paint1_radial_3204_28455" cx="0" cy="0" r="1" gradientUnits="userSpaceOnUse" gradientTransform="translate(4.95098 28.6292) scale(28.132 27.7831)">
<stop stop-color="#EB008B"/>
<stop offset="0.2" stop-color="#ED1878"/>
<stop offset="0.62" stop-color="#F25549"/>
<stop offset="0.98" stop-color="#F78F1E"/>
</radialGradient>
<radialGradient id="paint2_radial_3204_28455" cx="0" cy="0" r="1" gradientUnits="userSpaceOnUse" gradientTransform="translate(4.95098 28.6293) scale(28.132 27.7831)">
<stop stop-color="#EB008B"/>
<stop offset="0.2" stop-color="#ED1878"/>
<stop offset="0.62" stop-color="#F25549"/>
<stop offset="0.98" stop-color="#F78F1E"/>
</radialGradient>
<radialGradient id="paint3_radial_3204_28455" cx="0" cy="0" r="1" gradientUnits="userSpaceOnUse" gradientTransform="translate(3.5101 5.63434) scale(3.24195 3.20174)">
<stop stop-color="#EB008B"/>
<stop offset="0.2" stop-color="#ED1878"/>
<stop offset="0.62" stop-color="#F25549"/>
<stop offset="0.98" stop-color="#F78F1E"/>
</radialGradient>
<linearGradient id="paint4_linear_3204_28455" x1="0" y1="6.40844" x2="4.73777" y2="6.40844" gradientUnits="userSpaceOnUse">
<stop stop-color="#EB008B"/>
<stop offset="0.2" stop-color="#ED1878"/>
<stop offset="0.62" stop-color="#F25549"/>
<stop offset="0.98" stop-color="#F78F1E"/>
</linearGradient>
<linearGradient id="paint5_linear_3204_28455" x1="-1.6382" y1="11.3349" x2="10.3208" y2="25.6094" gradientUnits="userSpaceOnUse">
<stop offset="0.24" stop-color="#EC297B"/>
<stop offset="0.43" stop-color="#D32D80"/>
<stop offset="0.81" stop-color="#96388F"/>
<stop offset="1" stop-color="#773E97"/>
</linearGradient>
<linearGradient id="paint6_linear_3204_28455" x1="-0.555186" y1="10.4374" x2="11.4446" y2="24.4683" gradientUnits="userSpaceOnUse">
<stop offset="0.24" stop-color="#EC297B"/>
<stop offset="0.43" stop-color="#D32D80"/>
<stop offset="0.81" stop-color="#96388F"/>
<stop offset="1" stop-color="#773E97"/>
</linearGradient>
<linearGradient id="paint7_linear_3204_28455" x1="7.22022" y1="6.2599" x2="0.167483" y2="23.808" gradientUnits="userSpaceOnUse">
<stop offset="0.24" stop-color="#EC297B"/>
<stop offset="0.43" stop-color="#D32D80"/>
<stop offset="0.81" stop-color="#96388F"/>
<stop offset="1" stop-color="#773E97"/>
</linearGradient>
<linearGradient id="paint8_linear_3204_28455" x1="19.2994" y1="11.1142" x2="12.2466" y2="28.663" gradientUnits="userSpaceOnUse">
<stop offset="0.24" stop-color="#EC297B"/>
<stop offset="0.43" stop-color="#D32D80"/>
<stop offset="0.81" stop-color="#96388F"/>
<stop offset="1" stop-color="#773E97"/>
</linearGradient>
<linearGradient id="paint9_linear_3204_28455" x1="9.02924" y1="6.98643" x2="1.97646" y2="24.5352" gradientUnits="userSpaceOnUse">
<stop offset="0.24" stop-color="#EC297B"/>
<stop offset="0.43" stop-color="#D32D80"/>
<stop offset="0.81" stop-color="#96388F"/>
<stop offset="1" stop-color="#773E97"/>
</linearGradient>
<linearGradient id="paint10_linear_3204_28455" x1="-2.04938" y1="10.3715" x2="16.4976" y2="2.48109" gradientUnits="userSpaceOnUse">
<stop offset="0.39" stop-color="#EC297B"/>
<stop offset="0.54" stop-color="#D32D80"/>
<stop offset="0.85" stop-color="#96388F"/>
<stop offset="1" stop-color="#773E97"/>
</linearGradient>
<linearGradient id="paint11_linear_3204_28455" x1="-1.36403" y1="11.982" x2="17.183" y2="4.09157" gradientUnits="userSpaceOnUse">
<stop offset="0.24" stop-color="#EC297B"/>
<stop offset="0.43" stop-color="#D32D80"/>
<stop offset="0.81" stop-color="#96388F"/>
<stop offset="1" stop-color="#773E97"/>
</linearGradient>
<linearGradient id="paint12_linear_3204_28455" x1="-0.549114" y1="13.9281" x2="18.1419" y2="5.95422" gradientUnits="userSpaceOnUse">
<stop offset="0.24" stop-color="#EC297B"/>
<stop offset="0.43" stop-color="#D32D80"/>
<stop offset="0.81" stop-color="#96388F"/>
<stop offset="1" stop-color="#773E97"/>
</linearGradient>
<radialGradient id="paint13_radial_3204_28455" cx="0" cy="0" r="1" gradientUnits="userSpaceOnUse" gradientTransform="translate(15.0437 8.15594) scale(12.2977 12.1452)">
<stop stop-color="#EB008B"/>
<stop offset="0.13" stop-color="#EB0884"/>
<stop offset="0.32" stop-color="#ED1E73"/>
<stop offset="0.57" stop-color="#F04258"/>
<stop offset="0.85" stop-color="#F47431"/>
<stop offset="0.98" stop-color="#F78F1E"/>
</radialGradient>
<radialGradient id="paint14_radial_3204_28455" cx="0" cy="0" r="1" gradientUnits="userSpaceOnUse" gradientTransform="translate(12.3857 9.20954) scale(12.2977 12.1452)">
<stop stop-color="#EB008B"/>
<stop offset="0.2" stop-color="#ED1878"/>
<stop offset="0.62" stop-color="#F25549"/>
<stop offset="0.98" stop-color="#F78F1E"/>
</radialGradient>
<linearGradient id="paint15_linear_3204_28455" x1="17.7261" y1="11.6585" x2="11.5159" y2="1.70736" gradientUnits="userSpaceOnUse">
<stop offset="0.24" stop-color="#EC297B"/>
<stop offset="0.43" stop-color="#D32D80"/>
<stop offset="0.81" stop-color="#96388F"/>
<stop offset="1" stop-color="#773E97"/>
</linearGradient>
<linearGradient id="paint16_linear_3204_28455" x1="7.25928" y1="0.622228" x2="21.1693" y2="7.82696" gradientUnits="userSpaceOnUse">
<stop stop-color="#EB008B"/>
<stop offset="0.2" stop-color="#ED1878"/>
<stop offset="0.62" stop-color="#F25549"/>
<stop offset="0.98" stop-color="#F78F1E"/>
</linearGradient>
<clipPath id="clip0_3204_28455">
<rect width="49" height="24" fill="white"/>
</clipPath>
</defs>
</svg>
